<svg width="1280" height="242" viewBox="0 0 1280 242" fill="none" xmlns="http://www.w3.org/2000/svg">
<rect x="1100" y="80" width="100" height="52" rx="5" fill="#4285F4"/>
<path d="M1137.65 100.818H1129.79V111H1131.32V102.131H1136.12V111H1137.65V100.818ZM1143.09 111.154C1145.25 111.154 1146.65 109.578 1146.65 107.217C1146.65 104.84 1145.25 103.264 1143.09 103.264C1140.94 103.264 1139.53 104.84 1139.53 107.217C1139.53 109.578 1140.94 111.154 1143.09 111.154ZM1143.1 109.906C1141.69 109.906 1141.04 108.678 1141.04 107.212C1141.04 105.75 1141.69 104.507 1143.1 104.507C1144.5 104.507 1145.15 105.75 1145.15 107.212C1145.15 108.678 1144.5 109.906 1143.1 109.906ZM1149.77 108.917V103.364H1148.31V111H1149.93L1153.28 105.442V111H1154.74V103.364H1153.14L1149.77 108.917ZM1159.95 111.154C1161.76 111.154 1162.92 110.07 1163.09 108.584H1161.64C1161.45 109.409 1160.81 109.896 1159.96 109.896C1158.7 109.896 1157.89 108.847 1157.89 107.182C1157.89 105.546 1158.72 104.517 1159.96 104.517C1160.91 104.517 1161.48 105.114 1161.64 105.83H1163.09C1162.93 104.288 1161.67 103.264 1159.94 103.264C1157.78 103.264 1156.39 104.885 1156.39 107.217C1156.39 109.518 1157.73 111.154 1159.95 111.154ZM1164.68 111H1166.16V107.947H1167.13L1169.43 111H1171.28L1168.28 107.077L1171.24 103.364H1169.4L1166.88 106.565H1166.16V103.364H1164.68V111Z" fill="white"/>
</svg>
